<?xml version="1.0" standalone="no"?><!DOCTYPE svg PUBLIC "-//W3C//DTD SVG 1.1//EN" "http://www.w3.org/Graphics/SVG/1.1/DTD/svg11.dtd"><svg class="icon" height="512" viewBox="0 0 1024 1024" version="1.1" xmlns="http://www.w3.org/2000/svg"><path d="M497.21344 230.144a23.94112 23.94112 0 0 1-23.93088 23.93088h-95.72352a23.93088 23.93088 0 0 1 0-47.86176h95.72352a23.94112 23.94112 0 0 1 23.93088 23.93088zM627.51744 230.144c0 13.2096-7.55712 23.93088-16.85504 23.93088h-67.35872c-9.28768 0-16.85504-10.72128-16.85504-23.93088 0-13.2096 7.55712-23.93088 16.85504-23.93088h67.35872c9.29792 0 16.85504 10.72128 16.85504 23.93088zM773.74464 327.17824a27.92448 27.92448 0 0 1-27.91424 27.92448H469.30944a27.91424 27.91424 0 0 1-27.91424-27.92448 27.904 27.904 0 0 1 27.91424-27.91424h276.52096a27.92448 27.92448 0 0 1 27.91424 27.91424zM848.18944 426.88512a26.59328 26.59328 0 0 1-26.60352 26.58304H404.15232a26.58304 26.58304 0 1 1 0-53.17632h417.4336a26.60352 26.60352 0 0 1 26.60352 26.59328zM872.13056 521.27744a27.93472 27.93472 0 0 1-27.93472 27.92448h-77.1072a27.92448 27.92448 0 1 1 0-55.84896h77.1072a27.94496 27.94496 0 0 1 27.93472 27.92448zM717.89568 521.27744c0 15.42144-18.57536 27.92448-41.5232 27.92448h-533.8112c-22.92736 0-41.5232-12.50304-41.5232-27.92448 0-15.42144 18.5856-27.92448 41.5232-27.92448h533.8112c22.94784 0.01024 41.5232 12.50304 41.5232 27.92448zM263.23968 578.43712a29.2352 29.2352 0 0 1-29.24544 29.24544h-39.87456a29.2352 29.2352 0 1 1 0-58.48064h39.87456a29.24544 29.24544 0 0 1 29.24544 29.2352z" fill="#E4EEF2" /><path d="M550.4 635.5968a31.91808 31.91808 0 0 1-31.92832 31.91808H61.17376a31.90784 31.90784 0 0 1 0-63.81568h457.29792a31.91808 31.91808 0 0 1 31.92832 31.8976zM959.8464 748.31872a31.62112 31.62112 0 0 1-31.61088 31.62112H547.46112a31.63136 31.63136 0 0 1 0-63.24224h380.78464a31.61088 31.61088 0 0 1 31.60064 31.62112zM640.79872 802.816c0 12.65664-10.24 22.89664-22.87616 22.89664h-31.34464a22.8864 22.8864 0 0 1 0-45.7728h31.34464a22.87616 22.87616 0 0 1 22.87616 22.87616zM896.06144 848.51712a22.81472 22.81472 0 0 1-22.81472 22.80448H448.22528a22.81472 22.81472 0 0 1 0-45.60896h425.02144a22.81472 22.81472 0 0 1 22.81472 22.80448zM983.78752 848.51712a22.81472 22.81472 0 0 1-22.81472 22.80448h-18.19648a22.81472 22.81472 0 0 1 0-45.60896h18.19648a22.81472 22.81472 0 0 1 22.81472 22.80448z" fill="#E4EEF2" /><path d="M872.37632 350.8736c-1.16736-20.98176-9.14432-31.87712-34.70336-31.87712H436.5824c-10.9568 0-27.91424-1.9968-27.91424-18.944 0-27.904-8.96-40.84736-39.85408-40.84736h-102.144c-26.91072 0-37.86752 11.95008-37.86752 38.8608 0 25.21088-27.99616 16.30208-31.51872 52.80768h675.09248z" fill="#FFFFFF" /><path d="M877.62944 355.82976H191.82592l0.52224-5.43744c2.10944-21.83168 12.4416-29.34784 20.74624-35.38944 6.47168-4.70016 10.752-7.81312 10.752-16.9472 0-29.89056 13.60896-43.81696 42.83392-43.81696h102.144c31.82592 0 44.81024 13.27104 44.81024 45.81376 0 3.82976 0 13.9776 22.94784 13.9776h401.09056c26.368 0 38.22592 10.93632 39.64928 36.56704l0.3072 5.23264z m-674.62144-9.92256h663.9616c-1.78176-14.2848-8.02816-21.9648-29.2864-21.9648h-401.1008c-27.16672 0-32.8704-12.99456-32.8704-23.90016 0-27.16672-8.47872-35.8912-34.88768-35.8912h-102.144c-23.67488 0-32.91136 9.50272-32.91136 33.90464 0 14.19264-7.8848 19.92704-14.83776 24.97536-6.85056 4.98688-13.3632 9.728-15.9232 22.87616z" fill="#19AA97" /><path d="M355.5328 384.78848l100.28032-217.10848L841.728 290.06848l-49.68448 102.3488z" fill="#FFFFFF" /><path d="M795.11552 397.43488l-447.2832-7.81312 105.30816-227.9936L848.6912 287.0784l-53.57568 110.35648z m-431.88224-17.47968l425.728 7.44448 45.80352-94.34112-376.27904-119.32672-95.25248 206.22336z" fill="#19AA97" /><path d="M583.5776 307.46624l87.8592 23.7568" fill="#FFFFFF" /><path d="M584.192 305.07008l4.80256 1.29024-1.30048 4.80256-4.79232-1.30048zM657.29536 329.97376l-8.69376-2.34496 1.30048-4.79232 8.69376 2.34496-1.30048 4.79232z m-17.38752-4.7104l-8.704-2.34496 1.30048-4.79232 8.704 2.34496-1.30048 4.79232z m-17.39776-4.70016l-8.69376-2.34496 1.30048-4.79232 8.69376 2.34496-1.30048 4.79232z m-17.38752-4.70016l-8.704-2.34496 1.30048-4.79232 8.704 2.34496-1.30048 4.79232zM667.25888 327.5264l4.80256 1.29024-1.30048 4.80256-4.79232-1.30048z" fill="#19AA97" /><path d="M460.81024 305.02912l84.34688 26.19392" fill="#FFFFFF" /><path d="M461.54752 302.65344l4.74112 1.47456-1.47456 4.74112-4.74112-1.47456zM528.98816 328.79616l-10.69056-3.31776 1.47456-4.74112 10.7008 3.31776-1.4848 4.74112z m-21.39136-6.63552l-10.69056-3.328 1.47456-4.74112 10.69056 3.328-1.47456 4.74112z m-21.39136-6.64576l-10.69056-3.31776 1.47456-4.74112 10.69056 3.31776-1.47456 4.74112zM541.15328 327.3728l4.74112 1.47456-1.47456 4.73088-4.74112-1.47456z" fill="#19AA97" /><path d="M873.4208 350.8736H194.33472c-30.40256 0-40.62208 18.98496-38.53312 42.17856 0 0 9.49248 104.32512 12.61568 167.08608 3.09248 62.7712 6.49216 217.72288 6.49216 217.72288 0 39.38304-0.52224 42.57792 43.33568 42.57792l633.47712 0.29696c41.39008 0 42.6496 0.21504 42.6496-42.1376 0 0 0.62464-100.47488 6.46144-193.06496 5.8368-92.55936 12.2368-192.37888 12.2368-192.37888 1.4848-23.26528-7.77216-42.28096-39.64928-42.28096" fill="#FFFFFF" /><path d="M852.992 825.7024l-634.73664-0.29696c-21.05344 0-34.34496-0.52224-41.472-7.81312-6.83008-6.99392-6.83008-18.13504-6.83008-38.35904v-1.37216c-0.03072-1.44384-3.4304-155.4944-6.48192-217.47712-3.09248-61.94176-12.51328-165.8368-12.60544-166.88128-1.32096-14.61248 2.00704-26.7264 9.61536-35.05152 7.59808-8.31488 18.9952-12.53376 33.85344-12.53376h679.08608c15.22688 0 26.8288 4.12672 34.47808 12.27776 7.69024 8.192 11.10016 20.0704 10.12736 35.28704 0 0-6.4 99.81952-12.2368 192.37888-5.75488 91.37152-6.44096 191.78496-6.4512 192.77824 0 22.4256-0.29696 33.52576-7.09632 40.28416-6.83008 6.77888-18.33984 6.77888-39.24992 6.77888zM194.33472 355.82976c-11.96032 0-20.8896 3.13344-26.53184 9.30816-7.168 7.85408-7.79264 19.26144-7.05536 27.46368 0.09216 1.04448 9.53344 105.13408 12.63616 167.28064 3.06176 62.11584 6.46144 216.30976 6.49216 217.856v1.4848c0 17.03936 0 27.32032 4.00384 31.41632 4.01408 4.096 14.2848 4.83328 34.37568 4.83328l633.47712 0.29696 1.25952 4.9664v-4.95616c17.67424 0 28.33408 0 32.256-3.91168 3.97312-3.9424 4.16768-15.2064 4.16768-33.26976 0-1.04448 0.68608-101.71392 6.47168-193.37216 5.8368-92.5696 12.2368-192.38912 12.2368-192.38912 0.77824-12.36992-1.73056-21.74976-7.46496-27.86304-5.69344-6.06208-14.85824-9.14432-27.2384-9.14432H194.33472z" fill="#19AA97" /><path d="M846.22336 377.97888H221.61408c-27.9552 0-37.35552 16.96768-35.4304 37.71392 0 0 8.73472 93.22496 11.61216 149.32992 2.83648 56.1152 5.95968 194.62144 5.95968 194.62144 0 35.20512-0.47104 38.06208 39.87456 38.06208l582.64576 0.27648c38.06208 0 39.22944 0.18432 39.22944-37.6832 0 0 0.5632-89.8048 5.9392-172.56448 5.35552-82.7392 11.25376-171.96032 11.25376-171.96032 1.36192-20.79744-7.15776-37.79584-36.47488-37.79584M985.99936 793.53856c8.7552 8.48896 11.35616 20.224 5.8368 26.19392-5.51936 5.96992-17.1008 3.91168-25.83552-4.58752l-83.93728-81.62304c-8.74496-8.4992-11.34592-20.24448-5.81632-26.20416 5.50912-5.96992 17.09056-3.90144 25.81504 4.59776l83.93728 81.62304z" fill="#D8EDE9" /><path d="M983.2448 825.63072c-6.26688 0-13.3632-3.25632-18.97472-8.71424l-83.93728-81.62304c-9.86112-9.59488-12.45184-22.62016-5.90848-29.66528 6.26688-6.78912 19.95776-4.6592 29.36832 4.5056l83.93728 81.62304c9.86112 9.56416 12.47232 22.58944 5.92896 29.65504-2.54976 2.75456-6.144 4.21888-10.41408 4.21888z m-98.41664-119.2448c-1.98656 0-4.77184 0.45056-6.76864 2.6112-4.53632 4.90496-1.91488 15.3088 5.7344 22.74304l83.93728 81.62304c4.70016 4.56704 10.496 7.30112 15.5136 7.30112 1.98656 0 4.78208-0.45056 6.77888-2.6112 4.52608-4.90496 1.90464-15.31904-5.75488-22.7328l-83.93728-81.62304c-4.70016-4.57728-10.50624-7.31136-15.50336-7.31136z" fill="#19AA97" /><path d="M874.6496 709.62176c-6.31808 1.98656 2.304-3.71712-0.72704 4.096-1.05472 6.69696 1.78176 12.21632 6.90176 17.29536l79.73888 78.81728c8.21248 8.1408 24.5248 16.30208 28.39552 11.27424 0.4096-0.53248 0.86016-0.99328 1.24928-1.49504L874.6496 709.62176z" fill="#19AA97" /><path d="M886.31296 563.51744c-46.03904-44.73856-119.9104-43.68384-164.64896 2.37568-44.8 46.03904-43.73504 119.9616 2.32448 164.7104 46.08 44.72832 119.95136 43.6736 164.70016-2.36544 44.7488-46.05952 43.6736-119.98208-2.37568-164.72064" fill="#FFFFFF" /><path d="M805.14048 768.44032c-31.7952 0-61.8496-12.16512-84.62336-34.27328-23.23456-22.56896-36.27008-52.87936-36.73088-85.36064s11.7248-63.16032 34.31424-86.3744a120.43264 120.43264 0 0 1 87.0912-36.75136c31.7952 0 61.82912 12.16512 84.5824 34.27328a120.6272 120.6272 0 0 1 36.74112 85.3504 120.64768 120.64768 0 0 1-34.27328 86.39488 120.46336 120.46336 0 0 1-87.10144 36.74112z m0.0512-232.82688a110.592 110.592 0 0 0-79.9744 33.75104 110.71488 110.71488 0 0 0-31.50848 79.3088 110.6944 110.6944 0 0 0 33.73056 78.37696 110.9504 110.9504 0 0 0 77.70112 31.45728c30.43328 0 58.83904-11.9808 79.98464-33.73056 20.71552-21.31968 31.8976-49.48992 31.46752-79.31904s-12.42112-57.66144-33.7408-78.37696a110.81728 110.81728 0 0 0-77.66016-31.46752z" fill="#19AA97" /><path d="M493.03552 225.00352l264.88832 84.15232" fill="#FFFFFF" /><path d="M493.7728 222.62784l4.74112 1.50528-1.50528 4.73088-4.73088-1.50528zM742.98368 307.01568l-9.46176-3.00032 1.49504-4.73088 9.46176 3.00032-1.49504 4.73088z m-18.92352-6.01088l-9.46176-3.00032 1.49504-4.73088 9.46176 3.00032-1.49504 4.73088z m-18.92352-6.01088l-9.46176-3.00032 1.49504-4.73088 9.46176 3.00032-1.49504 4.73088z m-18.91328-6.01088l-9.46176-3.00032 1.49504-4.73088 9.46176 3.00032-1.49504 4.73088z m-18.92352-6.01088l-9.46176-3.00032 1.49504-4.73088 9.46176 3.00032-1.49504 4.73088z m-18.92352-6.01088l-9.46176-3.00032 1.49504-4.73088 9.46176 3.00032-1.49504 4.73088z m-18.91328-6.01088l-9.46176-3.00032 1.49504-4.73088 9.46176 3.00032-1.49504 4.73088z m-18.92352-6.01088l-9.46176-3.01056 1.49504-4.73088 9.46176 3.01056-1.49504 4.73088z m-18.92352-6.01088l-9.46176-3.00032 1.49504-4.73088 9.46176 3.00032-1.49504 4.73088z m-18.91328-6.01088l-9.46176-3.00032 1.49504-4.73088 9.46176 3.00032-1.49504 4.73088z m-18.92352-6.01088l-9.46176-3.00032 1.49504-4.73088 9.46176 3.00032-1.49504 4.73088z m-18.92352-6.02112l-9.46176-3.00032 1.49504-4.73088 9.46176 3.00032-1.49504 4.73088z m-18.92352-6.00064l-9.46176-3.00032 1.49504-4.73088 9.46176 3.00032-1.49504 4.73088zM753.92 305.28512l4.73088 1.50528-1.50528 4.73088-4.73088-1.50528z" fill="#19AA97" /><path d="M475.67872 267.07968l90.97216 30.33088" fill="#FFFFFF" /><path d="M476.4672 264.704l4.7104 1.57696-1.56672 4.7104-4.7104-1.56672zM552.09984 295.17824l-9.0624-3.0208 1.55648-4.7104 9.0624 3.0208-1.55648 4.7104z m-18.1248-6.05184l-9.07264-3.0208 1.55648-4.7104 9.07264 3.0208-1.55648 4.7104z m-18.13504-6.03136l-9.0624-3.0208 1.56672-4.7104 9.0624 3.0208-1.56672 4.7104z m-18.1248-6.05184l-9.0624-3.0208 1.56672-4.7104 9.0624 3.0208-1.56672 4.7104zM562.74944 293.4784l4.7104 1.56672-1.56672 4.7104-4.7104-1.56672z" fill="#19AA97" /><path d="M698.7776 152.46336l4.92544 0.4096-5.0176 59.10528-4.93568-0.41984zM763.1872 166.1952l3.97312 2.9696-39.0144 52.25472-3.97312-2.9696zM814.71488 211.2512l1.62816 4.7104-65.97632 22.784-1.61792-4.70016z" fill="#19AA97" /><path d="M796.14976 690.8928a45.0048 45.0048 0 0 1-2.49856-14.4896 29.85984 29.85984 0 0 1 2.57024-12.30848c1.78176-4.16768 6.38976-9.95328 13.83424-17.34656 7.60832-7.40352 12.26752-12.96384 13.95712-16.66048a24.2688 24.2688 0 0 0 2.46784-10.51648c-0.09216-5.87776-2.23232-10.48576-6.4512-13.84448-4.21888-3.33824-9.54368-4.95616-15.9744-4.864-11.22304 0.16384-20.97152 4.70016-29.22496 13.66016l-0.26624-18.86208c10.12736-6.52288 20.72576-9.86112 31.76448-10.02496 11.28448-0.16384 20.36736 2.56 27.27936 8.16128 6.912 5.61152 10.4448 13.34272 10.58816 23.21408a37.376 37.376 0 0 1-2.83648 14.42816c-1.9456 4.90496-7.1168 11.45856-15.52384 19.67104-6.33856 6.16448-10.5984 10.96704-12.7488 14.42816-2.17088 3.4816-3.20512 7.19872-3.15392 11.18208 0.06144 4.47488 1.19808 9.1136 3.42016 13.91616l-17.2032 0.256z m-1.86368 30.08512c-0.0512-3.18464 1.06496-5.9392 3.36896-8.28416 2.304-2.32448 5.0688-3.52256 8.31488-3.56352 3.23584-0.0512 6.05184 1.06496 8.40704 3.31776 2.3552 2.27328 3.56352 4.99712 3.61472 8.18176 0.04096 3.06176-1.06496 5.76512-3.328 8.0896a10.92608 10.92608 0 0 1-7.90528 3.57376c-3.66592 0.0512-6.656-1.0752-8.96-3.36896s-3.47136-4.94592-3.51232-7.94624z" fill="#19AA97" /></svg>